<svg width="349" height="32" viewBox="0 0 349 32" fill="none" xmlns="http://www.w3.org/2000/svg">
<path d="M3.95652 3H0V6.95652H3.95652V3Z" fill="#0170FE"/>
<path d="M3.95652 10.3478H0V14.3044H3.95652V10.3478Z" fill="#0170FE"/>
<path d="M3.95652 17.6957H0V21.6522H3.95652V17.6957Z" fill="#0170FE"/>
<path d="M3.95652 25.0435H0V29H3.95652V25.0435Z" fill="#0170FE"/>
<path d="M11.3043 3H7.34778V6.95652H11.3043V3Z" fill="#0170FE"/>
<path d="M11.3043 10.3478H7.34778V14.3044H11.3043V10.3478Z" fill="#0170FE"/>
<path d="M11.3043 17.6957H7.34778V21.6522H11.3043V17.6957Z" fill="#0170FE"/>
<path d="M11.3043 25.0435H7.34778V29H11.3043V25.0435Z" fill="#0170FE"/>
<path d="M18.6522 3H14.6957V6.95652H18.6522V3Z" fill="#0170FE"/>
<path d="M18.6522 10.3478H14.6957V14.3044H18.6522V10.3478Z" fill="#0170FE"/>
<path d="M18.6522 17.6957H14.6957V21.6522H18.6522V17.6957Z" fill="#0170FE"/>
<path d="M18.6522 25.0435H14.6957V29H18.6522V25.0435Z" fill="#0170FE"/>
<path d="M26 3H22.0435V6.95652H26V3Z" fill="#0170FE"/>
<path d="M26 10.3478H22.0435V14.3044H26V10.3478Z" fill="#0170FE"/>
<path d="M26 17.6957H22.0435V21.6522H26V17.6957Z" fill="#0170FE"/>
<path d="M26 25.0435H22.0435V29H26V25.0435Z" fill="#0170FE"/>
<path fill-rule="evenodd" clip-rule="evenodd" d="M40.7635 14.4631C37.8341 11.523 37.6759 8.7416 40.2889 6.119L44.9707 1.42006L45.0641 1.33331L45.1576 1.42006L49.8393 6.119C52.4262 8.71537 52.297 11.4674 49.4518 14.375L49.3647 14.4631L45.0642 18.7795L40.7635 14.4631Z" fill="#1AC2C4"/>
<path d="M58.8211 17.9717L58.9514 17.9767L58.9566 18.1071V24.8917C58.9566 28.6405 56.8762 30.5336 52.7155 30.5711L52.5888 30.5717H46.3566V24.3394C46.3566 20.0943 48.2499 17.9717 52.0365 17.9717H58.8211ZM56.9069 19.9999H52.2403C49.6357 19.9999 48.3334 21.4599 48.3334 24.3799V28.6666L52.7073 28.6662C55.5692 28.6404 57.0001 27.3383 57.0001 24.7597V20.0931L56.9966 20.0034L56.9069 19.9999Z" fill="#32A7A7"/>
<path fill-rule="evenodd" clip-rule="evenodd" d="M43.9333 24.3394C43.9333 20.0943 42.04 17.9717 38.2534 17.9717H31.4688L31.3385 17.9767L31.3333 18.1071V24.8917C31.3333 28.6405 33.4137 30.5336 37.5744 30.5711L37.7011 30.5717H43.9333V24.3394Z" fill="#199598"/>
<path fill-rule="evenodd" clip-rule="evenodd" d="M43.9334 30.5717H37.7011L37.5744 30.5711C33.4605 30.534 31.3804 28.6828 31.3342 25.0174L31.3334 24.8917V18.1071L31.3385 17.9767L43.9334 30.5717Z" fill="#1AC2C4"/>
<path fill-rule="evenodd" clip-rule="evenodd" d="M77 0C85.8366 0 93 7.16344 93 16C93 24.8366 85.8366 32 77 32C68.1634 32 61 24.8366 61 16C61 7.16344 68.1634 0 77 0ZM76.8462 6.46154C71.4932 6.46154 67.1538 10.8009 67.1538 16.1538C67.1538 21.5068 71.4932 25.8462 76.8462 25.8462C82.1991 25.8462 86.5385 21.5068 86.5385 16.1538C86.5385 10.8009 82.1991 6.46154 76.8462 6.46154Z" fill="#FFD3DA"/>
<path fill-rule="evenodd" clip-rule="evenodd" d="M77 3.69232C83.7973 3.69232 89.3076 9.20266 89.3076 16C89.3076 22.7974 83.7973 28.3077 77 28.3077C70.2026 28.3077 64.6923 22.7974 64.6923 16C64.6923 9.20266 70.2026 3.69232 77 3.69232ZM77 7.38463C72.2418 7.38463 68.3846 11.2419 68.3846 16C68.3846 20.7582 72.2418 24.6154 77 24.6154C81.7581 24.6154 85.6153 20.7582 85.6153 16C85.6153 11.2419 81.7581 7.38463 77 7.38463Z" fill="#F74455"/>
<path d="M80.952 13.8039C80.8231 13.5048 80.6385 13.2375 80.4048 13.0077C80.1712 12.7789 79.9 12.6 79.5972 12.4741C79.2847 12.3443 78.9539 12.2789 78.6125 12.2789C78.1385 12.2789 77.676 12.4087 77.2741 12.6539C77.1779 12.7125 77.0866 12.7769 77 12.8471C76.9135 12.7769 76.8222 12.7125 76.726 12.6539C76.3241 12.4087 75.8616 12.2789 75.3875 12.2789C75.0462 12.2789 74.7154 12.3443 74.4029 12.4741C74.101 12.5991 73.8289 12.7789 73.5952 13.0077C73.3606 13.2375 73.177 13.5048 73.0481 13.8039C72.9145 14.1144 72.8462 14.4443 72.8462 14.7837C72.8462 15.1039 72.9116 15.4375 73.0414 15.7769C73.15 16.0606 73.3058 16.3548 73.5048 16.6519C73.8202 17.1221 74.2539 17.6125 74.7923 18.1096C75.6847 18.9337 76.5683 19.5029 76.6058 19.526L76.8337 19.6721C76.9347 19.7366 77.0645 19.7366 77.1654 19.6721L77.3933 19.526C77.4308 19.5019 78.3135 18.9337 79.2068 18.1096C79.7452 17.6125 80.1789 17.1221 80.4943 16.6519C80.6933 16.3548 80.85 16.0606 80.9577 15.7769C81.0875 15.4375 81.1529 15.1039 81.1529 14.7837C81.1539 14.4443 81.0856 14.1144 80.952 13.8039Z" fill="#F74455"/>
<mask id="mask0_107_434" style="mask-type:alpha" maskUnits="userSpaceOnUse" x="96" y="0" width="25" height="32">
<path d="M96 0.113037H120.915V31.0224H96V0.113037Z" fill="white"/>
</mask>
<g mask="url(#mask0_107_434)">
<path fill-rule="evenodd" clip-rule="evenodd" d="M106.859 12.4985C108.03 9.48693 109.501 5.84751 110.256 3.89013C111.401 0.922147 114.975 -0.0410151 117.294 2.13062C120.464 5.09849 116.955 9.79435 115.326 13.7684C115.326 13.7684 119.8 14.5004 119.555 19.5707C119.555 19.5707 123.779 24.845 117.337 28.6303C112.106 31.7036 102.446 31.8151 98.7414 28.9677C95.1698 26.2223 95.4503 23.0626 97.5178 9.64313C97.9064 7.12104 98.2408 5.01683 98.7387 3.44503C100.278 -1.41551 106.739 -0.827764 107.065 4.35658C107.235 7.04898 106.235 9.88821 105.807 12.5239L106.859 12.4985Z" fill="#00BDFF"/>
</g>
<path fill-rule="evenodd" clip-rule="evenodd" d="M103.847 21.5272C103.847 23.6181 102.685 25.313 101.253 25.313C99.8202 25.313 98.6587 23.6181 98.6587 21.5272C98.6587 19.4364 99.8202 17.7415 101.253 17.7415C102.685 17.7415 103.847 19.4364 103.847 21.5272Z" fill="white"/>
<path fill-rule="evenodd" clip-rule="evenodd" d="M109.812 21.5272C109.812 23.6181 108.651 25.313 107.218 25.313C105.786 25.313 104.624 23.6181 104.624 21.5272C104.624 19.4364 105.786 17.7415 107.218 17.7415C108.651 17.7415 109.812 19.4364 109.812 21.5272Z" fill="white"/>
<path fill-rule="evenodd" clip-rule="evenodd" d="M103.586 21.5224C103.586 23.0253 102.8 24.2435 101.83 24.2435C100.86 24.2435 100.074 23.0253 100.074 21.5224C100.074 20.0196 100.86 18.8013 101.83 18.8013C102.8 18.8013 103.586 20.0196 103.586 21.5224Z" fill="#0B2051"/>
<path fill-rule="evenodd" clip-rule="evenodd" d="M109.48 21.5224C109.48 23.0253 108.693 24.2435 107.724 24.2435C106.753 24.2435 105.967 23.0253 105.967 21.5224C105.967 20.0196 106.753 18.8013 107.724 18.8013C108.693 18.8013 109.48 20.0196 109.48 21.5224Z" fill="#0B2051"/>
<path d="M105.05 25.3568C104.939 25.7419 104.584 26.0237 104.163 26.0237C103.741 26.0237 103.385 25.7395 103.276 25.3516" stroke="#0B2051" stroke-width="0.6" stroke-linecap="round" stroke-linejoin="round"/>
<path d="M153.884 10.575C153.181 8.89687 152.169 7.39063 150.881 6.09688C149.594 4.80625 148.091 3.79063 146.412 3.0875C144.697 2.36563 142.878 2 141 2H140.937C139.047 2.00938 137.219 2.38438 135.497 3.12188C133.834 3.83438 132.344 4.84687 131.069 6.1375C129.794 7.42812 128.794 8.92813 128.1 10.6C127.384 12.3313 127.022 14.1719 127.031 16.0656C127.041 18.2344 127.559 20.3875 128.528 22.3125V27.0625C128.528 27.8562 129.172 28.5 129.962 28.5H134.706C136.628 29.4719 138.775 29.9906 140.941 30H141.006C142.875 30 144.684 29.6375 146.391 28.9281C148.059 28.2313 149.559 27.2313 150.844 25.9531C152.131 24.675 153.144 23.1812 153.853 21.5156C154.587 19.7906 154.962 17.9562 154.972 16.0625C154.978 14.1594 154.609 12.3125 153.884 10.575ZM134.762 17.5C133.937 17.5 133.266 16.8281 133.266 16C133.266 15.1719 133.937 14.5 134.762 14.5C135.587 14.5 136.259 15.1719 136.259 16C136.259 16.8281 135.591 17.5 134.762 17.5ZM141 17.5C140.175 17.5 139.503 16.8281 139.503 16C139.503 15.1719 140.175 14.5 141 14.5C141.825 14.5 142.497 15.1719 142.497 16C142.497 16.8281 141.825 17.5 141 17.5ZM147.237 17.5C146.412 17.5 145.741 16.8281 145.741 16C145.741 15.1719 146.412 14.5 147.237 14.5C148.062 14.5 148.734 15.1719 148.734 16C148.734 16.8281 148.062 17.5 147.237 17.5Z" fill="#1AC2C4"/>
<path d="M169 28.5H184.5C185.053 28.5 185.5 28.0531 185.5 27.5V10.625H169V28.5ZM184.5 3.5H169V8.625H185.5V4.5C185.5 3.94687 185.053 3.5 184.5 3.5ZM160.5 4.5V27.5C160.5 28.0531 160.947 28.5 161.5 28.5H167V3.5H161.5C160.947 3.5 160.5 3.94687 160.5 4.5Z" fill="#88C4FF"/>
<path fill-rule="evenodd" clip-rule="evenodd" d="M184.5 3.5H169V8.625H185.5V4.5C185.5 3.94687 185.053 3.5 184.5 3.5Z" fill="#89C4FE"/>
<path fill-rule="evenodd" clip-rule="evenodd" d="M160.5 4.5V27.5C160.5 28.0531 160.947 28.5 161.5 28.5H167V3.5H161.5C160.947 3.5 160.5 3.94687 160.5 4.5Z" fill="#49A5FF"/>
<path d="M215.972 16.2031H204.797V5.0281C204.797 4.8906 204.684 4.7781 204.547 4.7781H203.734C202.05 4.7781 200.413 5.10935 198.875 5.75935C197.391 6.38747 196.053 7.28747 194.906 8.43435C193.759 9.58122 192.859 10.9156 192.231 12.4031C191.581 13.9437 191.25 15.5781 191.25 17.2656C191.25 18.9531 191.581 20.5843 192.231 22.125C192.859 23.6093 193.759 24.9468 194.906 26.0937C196.053 27.2406 197.388 28.1406 198.875 28.7687C200.416 29.4218 202.053 29.7531 203.738 29.7531C205.422 29.7531 207.059 29.4218 208.597 28.7718C210.081 28.1437 211.419 27.2437 212.566 26.0968C213.712 24.95 214.613 23.6156 215.241 22.1281C215.894 20.5875 216.225 18.95 216.225 17.2656V16.4531C216.222 16.3156 216.109 16.2031 215.972 16.2031ZM218.719 14.4687L218.638 13.5875C218.372 10.7125 217.097 7.99997 215.041 5.9531C212.987 3.89997 210.272 2.6281 207.388 2.36247L206.503 2.28122C206.356 2.26872 206.231 2.38122 206.231 2.5281V14.5187C206.231 14.6562 206.344 14.7687 206.481 14.7687L218.469 14.7375C218.616 14.7343 218.731 14.6125 218.719 14.4687Z" fill="#8947FF"/>
<path fill-rule="evenodd" clip-rule="evenodd" d="M219.117 14.7423L219.031 13.8125C218.751 10.7791 217.405 7.91714 215.236 5.75749C213.07 3.59126 210.204 2.24931 207.161 1.96905L206.228 1.88333C206.073 1.87014 205.941 1.98883 205.941 2.1438V14.795C205.941 14.9401 206.06 15.0588 206.205 15.0588L218.853 15.0258C219.008 15.0225 219.13 14.8939 219.117 14.7423Z" fill="#FF9329"/>
<path d="M249.502 8.51028C249.083 7.5387 248.482 6.67022 247.722 5.92357C246.962 5.18005 246.08 4.59897 245.094 4.18972C244.078 3.76798 243.002 3.55554 241.891 3.55554C240.349 3.55554 238.845 3.97729 237.537 4.77392C237.225 4.96449 236.927 5.1738 236.646 5.40185C236.364 5.1738 236.067 4.96449 235.754 4.77392C234.447 3.97729 232.942 3.55554 231.4 3.55554C230.29 3.55554 229.214 3.76798 228.197 4.18972C227.215 4.59585 226.33 5.18005 225.57 5.92357C224.807 6.67022 224.209 7.5387 223.79 8.51028C223.355 9.51935 223.133 10.5909 223.133 11.6937C223.133 12.734 223.346 13.818 223.768 14.9208C224.122 15.8424 224.628 16.7984 225.276 17.7637C226.302 19.2914 227.713 20.8846 229.464 22.4998C232.367 25.1771 235.242 27.0265 235.364 27.1015L236.105 27.5763C236.433 27.7856 236.856 27.7856 237.184 27.5763L237.925 27.1015C238.047 27.0234 240.919 25.1771 243.825 22.4998C245.576 20.8846 246.987 19.2914 248.013 17.7637C248.66 16.7984 249.17 15.8424 249.521 14.9208C249.943 13.818 250.156 12.734 250.156 11.6937C250.159 10.5909 249.937 9.51935 249.502 8.51028Z" fill="#F74557"/>
<path d="M268.6 2.40002C260.869 2.40002 254.6 8.66877 254.6 16.4C254.6 24.1313 260.869 30.4 268.6 30.4C276.331 30.4 282.6 24.1313 282.6 16.4C282.6 8.66877 276.331 2.40002 268.6 2.40002Z" fill="#FE725C"/>
<path d="M268.6 22.0563C265.928 22.0563 263.737 19.9532 263.6 17.3188C263.594 17.175 263.706 17.0563 263.85 17.0563H273.35C273.494 17.0563 273.606 17.175 273.6 17.3188C273.462 19.9532 271.272 22.0563 268.6 22.0563Z" fill="white"/>
<path d="M277.726 12.8114C277.337 11.3156 276.022 10.25 274.495 10.25C272.985 10.25 271.681 11.2915 271.277 12.7636C271.167 13.163 271.402 13.5758 271.801 13.6855C272.201 13.7953 272.613 13.5605 272.723 13.1611C272.952 12.3271 273.675 11.75 274.495 11.75C275.273 11.75 275.962 12.2693 276.227 13.0328L276.274 13.1886C276.378 13.5895 276.788 13.8301 277.189 13.7259C277.59 13.6217 277.83 13.2123 277.726 12.8114Z" fill="white"/>
<path d="M266.726 12.8114C266.337 11.3156 265.022 10.25 263.495 10.25C261.985 10.25 260.681 11.2915 260.277 12.7636C260.167 13.163 260.402 13.5758 260.801 13.6855C261.201 13.7953 261.613 13.5605 261.723 13.1611C261.952 12.3271 262.675 11.75 263.495 11.75C264.273 11.75 264.962 12.2693 265.227 13.0328L265.274 13.1886C265.378 13.5895 265.788 13.8301 266.189 13.7259C266.589 13.6217 266.83 13.2123 266.726 12.8114Z" fill="white"/>
<path d="M291.019 25.6335H288V29.3107H291.019V25.6335Z" fill="#FFD75A"/>
<path d="M296.453 22.8757H293.434V29.3107H296.453V22.8757Z" fill="#FFD75A"/>
<path d="M301.888 19.8113H298.869V29.3107H301.888V19.8113Z" fill="#FFD75A"/>
<path d="M307.322 15.5213H304.303V29.3107H307.322V15.5213Z" fill="#FFD75A"/>
<path d="M312.756 11.2313H309.737V29.3108H312.756V11.2313Z" fill="#FFD75A"/>
<path d="M309.132 3.96639L309.298 3.74076C309.486 3.48158 310.669 2.80466 311.04 2.98904C311.488 3.21168 311.099 4.35627 310.888 4.65018C305.773 11.7663 298.178 17.8201 288.116 22.8183L288 22.8757L288 20.8232C297.283 16.1134 304.323 10.4925 309.132 3.96639L309.298 3.74076L309.132 3.96639Z" fill="#FFB200"/>
<path d="M310.643 3.87692V7.86054H312.454V2.03833H306.718V3.87692H310.643Z" fill="#FFB200"/>
<path d="M344.684 16.6781C345.209 15.9844 345.5 15.1344 345.5 14.25C345.5 12.8469 344.716 11.5188 343.453 10.7781C343.128 10.5875 342.758 10.4872 342.381 10.4875H334.888L335.075 6.64689C335.119 5.71876 334.791 4.83751 334.153 4.16564C333.513 3.49376 332.65 3.12189 331.719 3.12189C330.094 3.12189 328.656 4.21564 328.225 5.78126L325.541 15.5H325.531V28.875H340.291C340.578 28.875 340.859 28.8188 341.119 28.7063C342.606 28.0719 343.566 26.6188 343.566 25.0063C343.566 24.6125 343.509 24.225 343.397 23.85C343.922 23.1563 344.212 22.3063 344.212 21.4219C344.212 21.0281 344.156 20.6406 344.044 20.2656C344.569 19.5719 344.859 18.7219 344.859 17.8375C344.853 17.4438 344.797 17.0531 344.684 16.6781ZM320.5 16.5V27.875C320.5 28.4281 320.947 28.875 321.5 28.875H323.531V15.5H321.5C320.947 15.5 320.5 15.9469 320.5 16.5Z" fill="#FE725C"/>
</svg>
